# xmcd
#
# Track frame offsets:
#	150
#	12553
#	22971
#	33928
#	42526
#	52065
#	64501
#	73305
#	90224
#	98345
#	108713
#	120519
#	131612
#
# Disc length: 1761 seconds
#
# Revision: 1
# Processed by: cddbd v1.5.2PL0 Copyright (c) Steve Scherf et al.
# Submitted via: audiograbber 1.83.01
#
DISCID=a906df0d
DTITLE=Miss Lauren Marie - Under The Stars, Over The Blues   2012
DYEAR=2012
DGENRE=Country
TTITLE0=Kiss Me Baby   2012
TTITLE1=My One Desire  2012
TTITLE2=Dream   2012
TTITLE3=An Honest Woman   2012
TTITLE4=So Cruel, So Cool, So Blind   2012
TTITLE5=You Must Be A Lover   2012
TTITLE6=For Rent    2012
TTITLE7=Forever's Much Too Long  2012
TTITLE8=Think What You Want   2012
TTITLE9=Ain't Misbehavin'   2012
TTITLE10=I'm Comin' Home  2012
TTITLE11=Under The Stars, Over The Blues   2012
TTITLE12=Outro
EXTD=
EXTT0=
EXTT1=
EXTT2=
EXTT3=
EXTT4=
EXTT5=
EXTT6=
EXTT7=
EXTT8=
EXTT9=
EXTT10=
EXTT11=
EXTT12=
PLAYORDER=
